<svg xmlns="http://www.w3.org/2000/svg" width="170" height="230" viewBox="0 0 170 230"><defs><filter id="s"><feDropShadow dx="0" dy="8" stdDeviation="7" flood-opacity=".22"/></filter></defs><ellipse cx="85" cy="213" rx="48" ry="12" fill="#17324a" opacity=".18"/><g filter="url(#s)"><path d="M47 201 L53 133 Q84 116 117 133 L123 201Z" fill="#466FAD"/><rect x="60" y="185" width="20" height="37" rx="10" fill="#34475B"/><rect x="91" y="185" width="20" height="37" rx="10" fill="#34475B"/><circle cx="85" cy="89" r="45" fill="#D8A16E"/><path d="M45 82 Q52 39 84 36 Q121 39 129 81 Q109 60 85 60 Q61 60 45 82Z" fill="#292522"/><circle cx="69" cy="93" r="5" fill="#211B18"/><circle cx="101" cy="93" r="5" fill="#211B18"/><path d="M70 111 Q85 120 100 111" fill="none" stroke="#7E473B" stroke-width="4" stroke-linecap="round"/><path d="M60 141 L110 141" stroke="#BFD7EE" stroke-width="8" stroke-linecap="round"/><path d="M110 147 l16 22 -8 7 -16-22z" fill="#B8C1C9"/><circle cx="124" cy="174" r="7" fill="#7F8B95"/></g></svg>