<svg xmlns="http://www.w3.org/2000/svg" width="1280" height="720" viewBox="0 0 1280 720">
  <defs>
    <linearGradient id="sky" x1="0" y1="0" x2="0" y2="1"><stop stop-color="#63BCE8"/><stop offset="1" stop-color="#CDEFFF"/></linearGradient>
    <linearGradient id="grass" x1="0" y1="0" x2="0" y2="1"><stop stop-color="#82C76B"/><stop offset="1" stop-color="#4F9D55"/></linearGradient>
    <linearGradient id="river" x1="0" y1="0" x2="1" y2="0"><stop stop-color="#75D4F5"/><stop offset=".55" stop-color="#A7E6FB"/><stop offset="1" stop-color="#60B8E0"/></linearGradient>
    <filter id="shadow" x="-30%" y="-30%" width="160%" height="160%"><feDropShadow dx="0" dy="8" stdDeviation="8" flood-opacity=".22"/></filter>
  </defs>

  <rect width="1280" height="720" fill="url(#sky)"/>
  <circle cx="1100" cy="90" r="48" fill="#FFE88A" opacity=".95"/>
  <path d="M0 240 L130 120 L250 230 L355 95 L500 235 L640 110 L770 230 L910 90 L1040 220 L1160 125 L1280 235 L1280 330 L0 330Z" fill="#8AB7C8" opacity=".7"/>
  <path d="M0 285 L150 170 L300 290 L430 165 L570 285 L690 180 L840 288 L980 165 L1115 275 L1280 180 L1280 340 L0 340Z" fill="#A9CFD6" opacity=".9"/>

  <rect y="280" width="1280" height="440" fill="url(#grass)"/>

  <path d="M120 650 C240 575 320 535 430 520 C540 505 600 470 640 425 C690 370 735 350 840 355 C950 360 1040 420 1160 500" fill="none" stroke="#EAD5A9" stroke-width="112" stroke-linecap="round"/>
  <path d="M120 650 C240 575 320 535 430 520 C540 505 600 470 640 425 C690 370 735 350 840 355 C950 360 1040 420 1160 500" fill="none" stroke="#F3E4C2" stroke-width="84" stroke-linecap="round"/>

  <path d="M460 720 C530 620 535 535 500 465 C470 405 480 350 555 305 C640 254 745 270 810 330 C870 386 890 470 855 550 C830 608 820 670 845 720Z" fill="url(#river)"/>
  <g opacity=".6" fill="none" stroke="#E6FAFF" stroke-width="5">
    <path d="M535 350 C610 322 690 326 760 350"/>
    <path d="M515 440 C620 415 730 420 835 448"/>
    <path d="M500 540 C620 515 735 520 850 550"/>
  </g>

  <g filter="url(#shadow)">
    <g transform="translate(92 245)">
      <rect x="0" y="42" width="190" height="130" rx="18" fill="#FFD58A"/>
      <path d="M-15 55 L95 -15 L205 55Z" fill="#D9684E"/>
      <rect x="72" y="95" width="46" height="77" rx="8" fill="#B86B4B"/>
      <rect x="20" y="78" width="42" height="38" rx="8" fill="#8BD3F4"/>
      <rect x="130" y="78" width="42" height="38" rx="8" fill="#8BD3F4"/>
      <rect x="28" y="28" width="135" height="38" rx="14" fill="#FFF6D8"/>
    </g>

    <g transform="translate(870 248)">
      <rect x="0" y="40" width="205" height="136" rx="18" fill="#D8EBFF"/>
      <path d="M-14 54 L105 -18 L219 54Z" fill="#4D78B8"/>
      <rect x="78" y="98" width="48" height="78" rx="8" fill="#4E6684"/>
      <rect x="24" y="78" width="44" height="40" rx="8" fill="#A9DBF4"/>
      <rect x="142" y="78" width="44" height="40" rx="8" fill="#A9DBF4"/>
      <rect x="28" y="22" width="150" height="40" rx="14" fill="#F5FAFF"/>
    </g>

    <g transform="translate(225 495)">
      <rect x="0" y="38" width="190" height="120" rx="18" fill="#DDF3B8"/>
      <path d="M-12 52 L95 -10 L203 52Z" fill="#6EAA59"/>
      <rect x="72" y="92" width="46" height="66" rx="8" fill="#7B8E4D"/>
      <rect x="20" y="75" width="42" height="35" rx="8" fill="#BEE6F6"/>
      <rect x="128" y="75" width="42" height="35" rx="8" fill="#BEE6F6"/>
    </g>

    <g transform="translate(905 500)">
      <rect x="0" y="38" width="190" height="120" rx="18" fill="#EFD4B3"/>
      <path d="M-12 52 L95 -10 L203 52Z" fill="#9D7047"/>
      <rect x="72" y="92" width="46" height="66" rx="8" fill="#795336"/>
      <rect x="20" y="75" width="42" height="35" rx="8" fill="#BEE6F6"/>
      <rect x="128" y="75" width="42" height="35" rx="8" fill="#BEE6F6"/>
    </g>

    <g transform="translate(565 185)">
      <rect x="0" y="42" width="190" height="130" rx="18" fill="#FFD6A3"/>
      <path d="M-15 55 L95 -15 L205 55Z" fill="#E49B2F"/>
      <rect x="72" y="95" width="46" height="77" rx="8" fill="#A76537"/>
      <rect x="22" y="78" width="38" height="38" rx="19" fill="#4F8BD9"/>
      <rect x="132" y="78" width="38" height="38" rx="19" fill="#F06D65"/>
      <rect x="24" y="26" width="142" height="38" rx="14" fill="#FFF9E8"/>
    </g>
  </g>

  <g fill="#3F8F4B">
    <circle cx="70" cy="395" r="32"/><circle cx="60" cy="370" r="27"/><circle cx="90" cy="370" r="25"/>
    <circle cx="1180" cy="390" r="32"/><circle cx="1170" cy="365" r="26"/><circle cx="1200" cy="365" r="24"/>
    <circle cx="470" cy="320" r="28"/><circle cx="455" cy="300" r="22"/><circle cx="488" cy="300" r="22"/>
    <circle cx="805" cy="270" r="28"/><circle cx="790" cy="250" r="22"/><circle cx="823" cy="250" r="22"/>
  </g>
  <g fill="#76533A">
    <rect x="65" y="390" width="12" height="42" rx="6"/><rect x="1175" y="385" width="12" height="42" rx="6"/>
    <rect x="465" y="315" width="12" height="38" rx="6"/><rect x="800" y="265" width="12" height="38" rx="6"/>
  </g>

  <g filter="url(#shadow)">
    <ellipse cx="640" cy="455" rx="92" ry="36" fill="#AEE8FB" opacity=".95"/>
    <ellipse cx="640" cy="448" rx="63" ry="25" fill="#DFF8FF" opacity=".85"/>
    <rect x="628" y="395" width="24" height="55" rx="12" fill="#DDE5EA"/>
    <path d="M640 395 C620 365 620 345 640 330 C660 345 660 365 640 395Z" fill="#E8F7FC"/>
  </g>

  <g opacity=".9">
    <circle cx="101" cy="610" r="7" fill="#FF7B6A"/><circle cx="119" cy="620" r="6" fill="#FFD85A"/><circle cx="133" cy="604" r="7" fill="#8C6AE8"/>
    <circle cx="1120" cy="590" r="7" fill="#FF7B6A"/><circle cx="1141" cy="604" r="6" fill="#FFD85A"/><circle cx="1155" cy="588" r="7" fill="#8C6AE8"/>
  </g>
</svg>